<svg width="27" height="27" viewBox="0 0 27 27" fill="none" xmlns="http://www.w3.org/2000/svg">
<path d="M13.4991 0C8.10725 0 3.7207 4.38655 3.7207 9.77832C3.7207 16.4697 12.4714 26.293 12.844 26.7079C13.1939 27.0977 13.8049 27.097 14.1542 26.7079C14.5268 26.293 23.2775 16.4697 23.2775 9.77832C23.2774 4.38655 18.8909 0 13.4991 0ZM13.4991 24.7709C10.554 21.2726 5.48161 14.3707 5.48161 9.77843C5.48161 5.3575 9.0782 1.76091 13.4991 1.76091C17.92 1.76091 21.5166 5.3575 21.5166 9.77838C21.5165 14.3709 16.4449 21.2715 13.4991 24.7709Z" fill="#1771F1"/>
<path d="M13.4998 4.85863C10.787 4.85863 8.58008 7.06561 8.58008 9.77837C8.58008 12.4911 10.7871 14.6981 13.4998 14.6981C16.2125 14.6981 18.4194 12.4911 18.4194 9.77837C18.4194 7.06561 16.2125 4.85863 13.4998 4.85863ZM13.4998 12.9372C11.758 12.9372 10.341 11.5202 10.341 9.77837C10.341 8.03656 11.758 6.61953 13.4998 6.61953C15.2415 6.61953 16.6586 8.03656 16.6586 9.77837C16.6586 11.5202 15.2415 12.9372 13.4998 12.9372Z" fill="#1771F1"/>
</svg>
